<svg xmlns="http://www.w3.org/2000/svg" xmlns:xlink="http://www.w3.org/1999/xlink" width="1920" zoomAndPan="magnify" viewBox="0 0 1440 809.999993" height="1080" preserveAspectRatio="xMidYMid meet" version="1.0"><defs><g/><clipPath id="5b94337783"><rect x="0" width="679" y="0" height="300"/></clipPath></defs><rect x="-144" width="1728" fill="#ffffff" y="-80.999999" height="971.999992" fill-opacity="1"/><rect x="-144" width="1728" fill="#720546" y="-80.999999" height="971.999992" fill-opacity="1"/><g transform="matrix(1, 0, 0, 1, 383, 216)"><g clip-path="url(#5b94337783)"><g fill="#ffffff" fill-opacity="1"><g transform="translate(0.123981, 244.875556)"><g><path d="M 48.53125 -107.765625 C 52.46875 -114.640625 56.992188 -120.039062 62.109375 -123.96875 C 67.234375 -127.90625 73.113281 -129.875 79.75 -129.875 C 85.476562 -129.875 90.144531 -128.523438 93.75 -125.828125 L 91.296875 -97.8125 C 90.890625 -96.007812 90.210938 -94.78125 89.265625 -94.125 C 88.328125 -93.46875 87.035156 -93.140625 85.390625 -93.140625 C 84.742188 -93.140625 83.882812 -93.179688 82.8125 -93.265625 C 81.75 -93.347656 80.644531 -93.445312 79.5 -93.5625 C 78.351562 -93.6875 77.1875 -93.8125 76 -93.9375 C 74.8125 -94.0625 73.722656 -94.125 72.734375 -94.125 C 67.171875 -94.125 62.726562 -92.648438 59.40625 -89.703125 C 56.09375 -86.753906 53.289062 -82.65625 51 -77.40625 L 51 0 L 12.90625 0 L 12.90625 -127.421875 L 35.515625 -127.421875 C 37.398438 -127.421875 38.972656 -127.253906 40.234375 -126.921875 C 41.503906 -126.597656 42.566406 -126.085938 43.421875 -125.390625 C 44.285156 -124.691406 44.941406 -123.769531 45.390625 -122.625 C 45.847656 -121.476562 46.238281 -120.085938 46.5625 -118.453125 Z M 48.53125 -107.765625 "/></g></g></g><g fill="#ffffff" fill-opacity="1"><g transform="translate(92.646754, 244.875556)"><g><path d="M 78.640625 -51.859375 C 71.023438 -51.523438 64.757812 -50.863281 59.84375 -49.875 C 54.925781 -48.894531 51.03125 -47.664062 48.15625 -46.1875 C 45.289062 -44.71875 43.304688 -43.039062 42.203125 -41.15625 C 41.097656 -39.28125 40.546875 -37.234375 40.546875 -35.015625 C 40.546875 -30.671875 41.734375 -27.617188 44.109375 -25.859375 C 46.484375 -24.097656 49.96875 -23.21875 54.5625 -23.21875 C 59.46875 -23.21875 63.765625 -24.078125 67.453125 -25.796875 C 71.140625 -27.523438 74.867188 -30.3125 78.640625 -34.15625 Z M 10.078125 -109.734375 C 17.773438 -116.523438 26.3125 -121.578125 35.6875 -124.890625 C 45.070312 -128.210938 55.128906 -129.875 65.859375 -129.875 C 73.554688 -129.875 80.5 -128.625 86.6875 -126.125 C 92.875 -123.632812 98.117188 -120.15625 102.421875 -115.6875 C 106.722656 -111.21875 110.019531 -105.910156 112.3125 -99.765625 C 114.601562 -93.628906 115.75 -86.914062 115.75 -79.625 L 115.75 0 L 98.296875 0 C 94.691406 0 91.96875 -0.488281 90.125 -1.46875 C 88.28125 -2.457031 86.742188 -4.507812 85.515625 -7.625 L 82.8125 -14.625 C 79.625 -11.914062 76.550781 -9.535156 73.59375 -7.484375 C 70.644531 -5.441406 67.59375 -3.703125 64.4375 -2.265625 C 61.289062 -0.835938 57.9375 0.222656 54.375 0.921875 C 50.8125 1.617188 46.859375 1.96875 42.515625 1.96875 C 36.703125 1.96875 31.414062 1.210938 26.65625 -0.296875 C 21.90625 -1.816406 17.867188 -4.050781 14.546875 -7 C 11.234375 -9.945312 8.675781 -13.613281 6.875 -18 C 5.070312 -22.382812 4.171875 -27.441406 4.171875 -33.171875 C 4.171875 -37.765625 5.316406 -42.414062 7.609375 -47.125 C 9.910156 -51.832031 13.882812 -56.128906 19.53125 -60.015625 C 25.1875 -63.910156 32.804688 -67.164062 42.390625 -69.78125 C 51.972656 -72.40625 64.054688 -73.882812 78.640625 -74.21875 L 78.640625 -79.625 C 78.640625 -87.070312 77.101562 -92.453125 74.03125 -95.765625 C 70.957031 -99.085938 66.597656 -100.75 60.953125 -100.75 C 56.441406 -100.75 52.753906 -100.257812 49.890625 -99.28125 C 47.023438 -98.300781 44.460938 -97.195312 42.203125 -95.96875 C 39.953125 -94.738281 37.757812 -93.628906 35.625 -92.640625 C 33.5 -91.660156 30.960938 -91.171875 28.015625 -91.171875 C 25.390625 -91.171875 23.175781 -91.828125 21.375 -93.140625 C 19.570312 -94.453125 18.097656 -96.007812 16.953125 -97.8125 Z M 10.078125 -109.734375 "/></g></g></g><g fill="#ffffff" fill-opacity="1"><g transform="translate(219.819601, 244.875556)"><g><path d="M 107.640625 -112.1875 C 107.640625 -109.5625 107.1875 -107.019531 106.28125 -104.5625 C 105.382812 -102.101562 104.195312 -100.097656 102.71875 -98.546875 L 49.515625 -28.265625 L 106.40625 -28.265625 L 106.40625 0 L 5.65625 0 L 5.65625 -15.484375 C 5.65625 -17.035156 6.0625 -19 6.875 -21.375 C 7.695312 -23.75 8.925781 -25.960938 10.5625 -28.015625 L 64.265625 -99.15625 L 9.09375 -99.15625 L 9.09375 -127.421875 L 107.640625 -127.421875 Z M 107.640625 -112.1875 "/></g></g></g><g fill="#ffffff" fill-opacity="1"><g transform="translate(332.247725, 244.875556)"><g><path d="M 92.15625 -79.015625 C 92.15625 -82.046875 91.765625 -84.992188 90.984375 -87.859375 C 90.210938 -90.722656 88.941406 -93.28125 87.171875 -95.53125 C 85.410156 -97.789062 83.097656 -99.613281 80.234375 -101 C 77.367188 -102.394531 73.890625 -103.09375 69.796875 -103.09375 C 62.585938 -103.09375 56.929688 -101.023438 52.828125 -96.890625 C 48.734375 -92.753906 46.03125 -86.796875 44.71875 -79.015625 Z M 44.234375 -56.890625 C 45.460938 -46.242188 48.695312 -38.523438 53.9375 -33.734375 C 59.1875 -28.941406 65.945312 -26.546875 74.21875 -26.546875 C 78.644531 -26.546875 82.453125 -27.078125 85.640625 -28.140625 C 88.835938 -29.203125 91.6875 -30.390625 94.1875 -31.703125 C 96.6875 -33.015625 98.976562 -34.203125 101.0625 -35.265625 C 103.15625 -36.328125 105.347656 -36.859375 107.640625 -36.859375 C 110.671875 -36.859375 112.960938 -35.753906 114.515625 -33.546875 L 125.578125 -19.90625 C 121.648438 -15.394531 117.410156 -11.726562 112.859375 -8.90625 C 108.316406 -6.082031 103.648438 -3.867188 98.859375 -2.265625 C 94.066406 -0.671875 89.269531 0.429688 84.46875 1.046875 C 79.675781 1.660156 75.113281 1.96875 70.78125 1.96875 C 61.84375 1.96875 53.460938 0.515625 45.640625 -2.390625 C 37.816406 -5.304688 30.976562 -9.628906 25.125 -15.359375 C 19.269531 -21.085938 14.640625 -28.210938 11.234375 -36.734375 C 7.835938 -45.253906 6.140625 -55.164062 6.140625 -66.46875 C 6.140625 -74.988281 7.59375 -83.054688 10.5 -90.671875 C 13.414062 -98.296875 17.59375 -104.972656 23.03125 -110.703125 C 28.476562 -116.441406 35.070312 -120.988281 42.8125 -124.34375 C 50.5625 -127.707031 59.3125 -129.390625 69.0625 -129.390625 C 77.5 -129.390625 85.21875 -128.078125 92.21875 -125.453125 C 99.21875 -122.828125 105.238281 -119.015625 110.28125 -114.015625 C 115.320312 -109.023438 119.253906 -102.90625 122.078125 -95.65625 C 124.898438 -88.40625 126.3125 -80.191406 126.3125 -71.015625 C 126.3125 -68.148438 126.1875 -65.816406 125.9375 -64.015625 C 125.695312 -62.210938 125.25 -60.78125 124.59375 -59.71875 C 123.9375 -58.65625 123.054688 -57.914062 121.953125 -57.5 C 120.847656 -57.09375 119.4375 -56.890625 117.71875 -56.890625 Z M 44.234375 -56.890625 "/></g></g></g><g fill="#ffffff" fill-opacity="1"><g transform="translate(464.704132, 244.875556)"><g><path d="M 12.90625 0 L 12.90625 -127.421875 L 36.5 -127.421875 C 41.25 -127.421875 44.359375 -125.289062 45.828125 -121.03125 L 47.921875 -114.15625 C 50.046875 -116.363281 52.253906 -118.390625 54.546875 -120.234375 C 56.847656 -122.078125 59.328125 -123.671875 61.984375 -125.015625 C 64.648438 -126.367188 67.519531 -127.4375 70.59375 -128.21875 C 73.664062 -129 77.046875 -129.390625 80.734375 -129.390625 C 88.429688 -129.390625 94.796875 -127.398438 99.828125 -123.421875 C 104.867188 -119.453125 108.703125 -114.148438 111.328125 -107.515625 C 113.453125 -111.441406 116.050781 -114.796875 119.125 -117.578125 C 122.195312 -120.367188 125.515625 -122.625 129.078125 -124.34375 C 132.640625 -126.070312 136.40625 -127.34375 140.375 -128.15625 C 144.351562 -128.976562 148.304688 -129.390625 152.234375 -129.390625 C 159.523438 -129.390625 166 -128.300781 171.65625 -126.125 C 177.3125 -123.957031 182.039062 -120.804688 185.84375 -116.671875 C 189.65625 -112.535156 192.539062 -107.457031 194.5 -101.4375 C 196.46875 -95.414062 197.453125 -88.59375 197.453125 -80.96875 L 197.453125 0 L 159.375 0 L 159.375 -80.96875 C 159.375 -94.15625 153.71875 -100.75 142.40625 -100.75 C 137.25 -100.75 132.96875 -99.050781 129.5625 -95.65625 C 126.164062 -92.257812 124.46875 -87.363281 124.46875 -80.96875 L 124.46875 0 L 86.375 0 L 86.375 -80.96875 C 86.375 -88.257812 84.941406 -93.378906 82.078125 -96.328125 C 79.210938 -99.273438 74.992188 -100.75 69.421875 -100.75 C 65.984375 -100.75 62.726562 -99.972656 59.65625 -98.421875 C 56.582031 -96.867188 53.695312 -94.78125 51 -92.15625 L 51 0 Z M 12.90625 0 "/></g></g></g></g></g></svg>